<?xml version="1.0" encoding="UTF-8"?> <svg xmlns="http://www.w3.org/2000/svg" viewBox="0 0 984.03 624.22"><defs><style>.cls-1{fill:#316298;}.cls-2{fill:#f26722;}</style></defs><title>Fichier 1</title><g id="Calque_2" data-name="Calque 2"><g id="Calque_1-2" data-name="Calque 1"><path class="cls-1" d="M169.14,239.8H128.25L123.83,64.45,52.19,239.8H10.48L3.12,0H42.7l1.64,167.83L111.89,0h44l4.42,166L225.05,0h39.13Z"></path><path class="cls-1" d="M264.71,66.08h38.45L273.38,239.8H234.94ZM276,0h38.61l-7.36,42.53H268.8Z"></path><path class="cls-1" d="M328,66.08h36.62l-3.78,22.58Q375,73.78,386.86,68a54.87,54.87,0,0,1,24.39-5.8q17.13,0,27.41,11.93t10.28,32.71q0,9-4.22,34.51L428,239.8H389.37l16.9-98.47q3.74-22.08,3.74-26.5,0-9.33-4.48-14.31a14.92,14.92,0,0,0-11.65-5q-7.83,0-16,6.21a55.83,55.83,0,0,0-17.43,21Q354.76,135,349,168.48L336.7,239.8H298.26Z"></path><path class="cls-1" d="M452.85,239.8,493.91,0h38.61L491.29,239.8Z"></path><path class="cls-1" d="M545.12,66.08h38.44L553.79,239.8H515.35ZM556.41,0H595l-7.36,42.53H549.21Z"></path><path class="cls-1" d="M576.21,249.12l40.84,7.2q0,10.47,5.16,15.54t15.67,5.07q10.32,0,16.81-4a26.45,26.45,0,0,0,10.08-12.11q3.62-8.07,7.15-32.44l1.07-8.18q-19.79,20.28-41,20.28-20.76,0-34.33-17.66t-13.57-53q0-33.53,9.85-58.48t25.58-37q15.74-12.11,32-12.1a41.08,41.08,0,0,1,25.42,8.91q11.7,8.93,18.48,25.77l4.92-30.76h36.14L713.32,210.89q-6.9,42.38-12.47,58.39-7.71,21.9-22.6,31.46t-41.11,9.56q-30.63,0-44.22-11.26-17-14-17-42.74Zm45.48-84.07q0,19.78,8.23,31.57,6.29,9,16.94,9,8.71,0,17.35-7.36T679.14,174a104.5,104.5,0,0,0,6.29-36.72q0-19.31-8.15-30.51t-18.64-11.2q-8.07,0-15.89,7T628.3,128.24A110.55,110.55,0,0,0,621.69,165.05Z"></path><path class="cls-1" d="M771.53,239.8H733.09L774.15,0h38.6L798.08,85.39q13.73-13.08,25-18.16a56.41,56.41,0,0,1,23.37-5.07q16.85,0,27.14,11.78t10.3,32.38q0,10.31-3.76,31.9L862.64,239.8H824.2L842,136.26q2.78-16.84,2.78-21.59,0-9-4.59-14.07a15.38,15.38,0,0,0-12-5.07q-9.67,0-18.35,8a67.53,67.53,0,0,0-17.86,27q-3.28,8.67-8.68,40.4Z"></path><path class="cls-1" d="M894.88,100.92l6.25-34.84H921l4.84-27.8L970.72,5.45l-11,60.63H984l-5.91,34.84h-24.7L940,173.48q-3.5,19.58-3.49,22.74c0,3.9,1,6.79,3.11,8.68s5.64,2.84,10.71,2.84q2.41,0,13.3-1.15l-6.39,34.85a94.5,94.5,0,0,1-20.62,2.29q-20.1,0-30.08-9.16t-10-26.83q0-8.18,5.25-37l12.79-69.85Z"></path><path class="cls-2" d="M34.64,313.46c-38.11,43.7-46.56,107.8-16.39,160.06L21,478.11c30.17,42.85,83.71,83.11,149.6,109.24a403.66,403.66,0,0,0,50.82,16.39L237.29,608c48,13,108.88,18.35,175.48,15.44,91.15-4,173.15-24.42,226.91-53.05l28.66-16c-57.29,28.25-153.93,42.77-262.08,35.15C325,583.79,251.9,566.6,198.2,543.12l-14.38-6.59a390.05,390.05,0,0,1-60.52-36l-8-6.08C48,442.63,15.32,368.76,33.4,316.54Z"></path></g></g></svg> 