<?xml version="1.0" encoding="UTF-8"?> <svg xmlns="http://www.w3.org/2000/svg" id="Calque_1" data-name="Calque 1" viewBox="0 0 2953.94 627.67"><defs><style>.cls-1{fill:#316298;}.cls-2{fill:#f26722;}.cls-3{fill:#fff;}.cls-4{fill:none;stroke:#1d1d1b;stroke-miterlimit:10;stroke-width:3px;}.cls-5{fill:#1d1d1b;}</style></defs><title>winlight-system-iso9001</title><path class="cls-1" d="M5720.1,1864h-40.89l-4.42-175.35L5603.15,1864h-41.72l-7.36-239.8h39.58l1.64,167.83,67.56-167.83h44l4.42,166,64.74-166h39.12Z" transform="translate(-5550.95 -1620.73)"></path><path class="cls-1" d="M5815.67,1690.26h38.44L5824.34,1864H5785.9Zm11.28-66.08h38.61l-7.36,42.53h-38.44Z" transform="translate(-5550.95 -1620.73)"></path><path class="cls-1" d="M5879,1690.26h36.62l-3.78,22.58q14.19-14.89,26-20.7a54.77,54.77,0,0,1,24.39-5.8q17.13,0,27.41,11.93t10.28,32.7q0,9-4.21,34.52L5979,1864h-38.67l16.91-98.47q3.74-22.08,3.73-26.5,0-9.33-4.48-14.31a14.92,14.92,0,0,0-11.65-5q-7.82,0-16,6.21a55.77,55.77,0,0,0-17.44,21q-5.7,12.19-11.45,45.72L5887.65,1864h-38.44Z" transform="translate(-5550.95 -1620.73)"></path><path class="cls-1" d="M6003.8,1864l41.06-239.8h38.61L6042.24,1864Z" transform="translate(-5550.95 -1620.73)"></path><path class="cls-1" d="M6096.07,1690.26h38.45L6104.74,1864H6066.3Zm11.29-66.08H6146l-7.36,42.53h-38.45Z" transform="translate(-5550.95 -1620.73)"></path><path class="cls-1" d="M6127.16,1873.3l40.84,7.2q0,10.47,5.17,15.54t15.66,5.07q10.34,0,16.81-4a26.53,26.53,0,0,0,10.09-12.11q3.6-8.07,7.14-32.44l1.07-8.18q-19.78,20.28-41,20.28-20.76,0-34.33-17.66T6135,1794q0-33.53,9.84-58.48t25.58-37q15.74-12.11,32-12.1a41.08,41.08,0,0,1,25.41,8.91q11.7,8.93,18.48,25.76l4.92-30.75h36.14l-23.16,144.81q-6.9,42.38-12.47,58.39-7.7,21.9-22.6,31.46t-41.11,9.56q-30.63,0-44.22-11.26-17-14-17-42.74Zm45.48-84.08q0,19.8,8.23,31.57,6.3,9,16.95,9,8.7,0,17.34-7.36t14.93-24.29a104.5,104.5,0,0,0,6.3-36.72q0-19.31-8.15-30.51t-18.64-11.2q-8.07,0-15.9,7t-14.44,25.76A110.3,110.3,0,0,0,6172.64,1789.22Z" transform="translate(-5550.95 -1620.73)"></path><path class="cls-1" d="M6322.49,1864h-38.44l41.05-239.8h38.61L6349,1709.57q13.73-13.08,25-18.16a56.43,56.43,0,0,1,23.38-5.07q16.83,0,27.13,11.77t10.3,32.39q0,10.3-3.76,31.9L6413.6,1864h-38.44L6393,1760.44q2.78-16.85,2.78-21.6,0-9-4.59-14.06a15.37,15.37,0,0,0-12-5.07q-9.68,0-18.35,8a67.64,67.64,0,0,0-17.86,27q-3.27,8.67-8.68,40.4Z" transform="translate(-5550.95 -1620.73)"></path><path class="cls-1" d="M6445.83,1725.1l6.25-34.84H6472l4.84-27.8,44.85-32.84-11,60.64H6535l-5.91,34.84h-24.7l-13.46,72.56q-3.51,19.58-3.5,22.74c0,3.89,1,6.79,3.11,8.68s5.64,2.84,10.71,2.84q2.42,0,13.3-1.15l-6.39,34.84a93.8,93.8,0,0,1-20.61,2.29q-20.11,0-30.09-9.16t-10-26.82q0-8.18,5.25-37l12.79-69.85Z" transform="translate(-5550.95 -1620.73)"></path><path class="cls-2" d="M5585.59,1937.64c-38.11,43.7-46.55,107.8-16.38,160l2.7,4.6c30.17,42.85,83.72,83.11,149.61,109.24a404.63,404.63,0,0,0,50.81,16.39l15.92,4.27c48,13,108.87,18.35,175.47,15.44,91.15-4,173.15-24.42,226.92-53.06l28.66-16c-57.29,28.24-153.93,42.77-262.08,35.15-81.28-5.73-154.37-22.93-208.07-46.4l-14.38-6.59a390.05,390.05,0,0,1-60.52-36l-8-6.08c-67.28-51.86-100-125.73-81.89-178Z" transform="translate(-5550.95 -1620.73)"></path><path class="cls-1" d="M6594.13,1784.94l38-2.42q.81,19.07,4.37,26.5a25.57,25.57,0,0,0,11.8,11.72q8.24,4.29,22.46,4.28,18.42,0,27.72-8.08t9.29-21.17a24.52,24.52,0,0,0-5.33-15.84q-5.34-6.47-27.64-18.26-28.29-15-37.58-23.36a56.19,56.19,0,0,1-14.38-20.44,70.88,70.88,0,0,1-5.09-27.64q0-31.68,18.59-50.59t50.74-18.91q32.49,0,52,18.8t21.41,53l-38.3,1.94q-2.93-35.07-35.32-35.07-16,0-23.58,6.72t-7.53,18.37q0,10.69,7.17,17.32,7,6.81,28.18,18.13,27.94,14.73,37.18,22.88a54,54,0,0,1,14.17,20,69.52,69.52,0,0,1,4.94,26.89q0,33.58-21.17,54.83t-55.92,21.23q-26.19,0-44.69-11.15t-25.22-29.74A109.4,109.4,0,0,1,6594.13,1784.94Z" transform="translate(-5550.95 -1620.73)"></path><path class="cls-1" d="M6768.52,1690.07h37.86l9.53,85.5q3.56,32.81,4,46.22a411.31,411.31,0,0,1,20.37-55.6l33.78-76.12h40.24l-86.93,188.45Q6815.13,1905,6808.5,1914a42.79,42.79,0,0,1-14.95,13.16,41.27,41.27,0,0,1-18.84,4.2q-12,0-27.16-5.17l3.39-34.59a39.19,39.19,0,0,0,13.25,2.43q17.46,0,28.84-32.33Z" transform="translate(-5550.95 -1620.73)"></path><path class="cls-1" d="M6890.46,1813.71l36.85-7.11q4.84,14.55,12.28,20.28t19.72,5.74q11.79,0,19.07-5.66t7.27-13.25a12.87,12.87,0,0,0-3.07-8.73q-3.22-3.39-15.51-8.24-34.11-13.74-42.35-21.66-13.1-12.76-13.09-33.29,0-24.24,17.13-39.92t46.87-15.68q50.43,0,58.51,44.77l-35.07,7.43q-6.15-20.36-29.42-20.36-11,0-16.65,4.53a14.06,14.06,0,0,0-5.65,11.47,12.92,12.92,0,0,0,4.36,9.86q3.24,3.08,22.31,9.86,27.3,9.7,36.68,18.92a43.89,43.89,0,0,1,13.74,32.64q0,26-17.61,43.15t-46.71,17.13Q6902.9,1865.59,6890.46,1813.71Z" transform="translate(-5550.95 -1620.73)"></path><path class="cls-1" d="M7041.77,1724.5l6.18-34.43h19.67l4.78-27.48,44.31-32.43-10.88,59.91h24L7124,1724.5h-24.4l-13.3,71.69q-3.47,19.33-3.46,22.46c0,3.85,1,6.71,3.07,8.58s5.58,2.81,10.59,2.81q2.39,0,13.14-1.14l-6.31,34.43a92.9,92.9,0,0,1-20.37,2.26q-19.87,0-29.73-9t-9.85-26.5q0-8.08,5.19-36.53l12.64-69Z" transform="translate(-5550.95 -1620.73)"></path><path class="cls-1" d="M7249.17,1790.28h-95.52v4.36q0,17.29,8.08,27.64t19.4,10.34q18.73,0,29.57-23.92l34.11,7q-10,25-26.67,37.5a60.82,60.82,0,0,1-37.34,12.44q-27.48,0-45.66-21.41T7117,1786.07q0-39.58,20.69-69.74t57.86-30.14q25,0,40.65,19t15.6,54.87A159.21,159.21,0,0,1,7249.17,1790.28ZM7217,1762l.16-4.52q0-19.56-7.19-28.93t-18.67-9.38q-11.64,0-21.09,10.83t-12.69,32Z" transform="translate(-5550.95 -1620.73)"></path><path class="cls-1" d="M7277.3,1690.07h36l-3.73,20.85q21.35-24.74,44.66-24.73,31.2,0,36.13,30.22a61.26,61.26,0,0,1,21.53-21.73q13.88-8.49,28.06-8.49,16.65,0,26.43,10.6t9.79,29.54q0,8.89-3.71,30.55l-17.94,104.83h-38.21l17.94-104.89q3.4-19.71,3.4-22.3,0-7.44-3.78-11.4t-10.37-4q-14,0-25.16,17.11-8.88,13.39-14.81,47.27l-13.22,78.17h-38.2L7349.89,1758q3.06-17.94,3.07-23.11,0-7.27-4-11.48a13.71,13.71,0,0,0-10.31-4.2q-8.41,0-17.4,7.84t-14.27,22.87q-3.13,8.89-7.42,33l-13.63,78.87h-38Z" transform="translate(-5550.95 -1620.73)"></path><polygon class="cls-3" points="2952.44 622 2394.74 622 2394.74 11.13 2952.44 11.13 2952.44 622 2952.44 622"></polygon><polygon class="cls-4" points="2952.44 622 2394.74 622 2394.74 11.13 2952.44 11.13 2952.44 622 2952.44 622"></polygon><path class="cls-5" d="M8055.82,2028.32a22.23,22.23,0,0,0-8-17.38l-6.16,5.23c3.38,3.13,5.66,6.92,5.66,11.82,0,9.28-7.6,15.19-20.17,15.19-12.41,0-20-6.42-20-15.44,0-4.31,1.94-7.6,4.81-10.47l-6.33-5.24a22,22,0,0,0-7,16c0,13.92,10.72,25.23,28.78,25.23,18.31,0,28.44-11,28.44-24.9Zm-1-26.58v-34.09h-8.27V1992h-16.29v-19.83H8022V1992h-14.1v-23.46h-8.27v33.25Zm0-45.4v-9.79H8033.2v-8.44l21.61-11.9v-11l-23,13.17c-2.28-6.58-7.35-11-15.79-11-12.32,0-16.37,8.78-16.37,20.25v18.66Zm-29.37-9.79h-18v-7.85c0-7.51,2.19-11.65,8.52-11.65s9.46,4.14,9.46,11.65v7.85Zm29.37-50v-9.79h-46.93v-16h-8.27v41.69h8.27v-16Zm0-34.94v-9.79h-55.2v9.79Zm0-23.8v-9.79h-23V1808h-8.27v20.08h-15.62v-23.54h-8.27v33.33Zm0-43V1785h-55.2v9.79Zm0-23.8v-34.09h-8.27v24.3h-16.29v-19.83H8022v19.83h-14.1v-23.46h-8.27V1771Zm0-45.4v-15.28c0-16.37-9.54-26.33-27.85-26.33s-27.35,10-27.35,26.84v14.77Zm-7.94-9.79h-39.33v-4.31c0-11.14,5.91-17.47,19.42-17.47s19.91,6.33,19.91,17.47v4.31Z" transform="translate(-5550.95 -1620.73)"></path><polygon class="cls-5" points="2896.64 431.16 2562.83 431.16 2562.83 64.04 2896.64 64.04 2896.64 431.16 2896.64 431.16"></polygon><polygon class="cls-3" points="2774.28 352.02 2649.15 352.02 2649.15 100.29 2616.44 100.29 2616.44 380.55 2774.28 380.55 2774.28 352.02 2774.28 352.02"></polygon><path class="cls-3" d="M8367.88,1804.52c0,35.3-24.68,55.49-66.69,55.49h-37.32l115.34,141.35h39.91l-94.84-115.57c47.42-4.16,76.11-36.59,76.11-81.27,0-52.3-35.24-83.52-94.83-83.52H8264v28.42h38.47c42,0,65.43,20.08,65.43,55.1" transform="translate(-5550.95 -1620.73)"></path><path class="cls-5" d="M8000.12,2185h14.5v-81.77h-14.5V2185Zm59.14,1.5c18.38,0,29.38-11,29.38-24.25,0-11.88-6.88-18-16.51-22.13l-11.12-4.63c-6.76-2.75-13-5.13-13-11.5,0-6,5.13-9.63,12.88-9.63,7,0,12.5,2.63,17.76,7l7.37-9.25a36.07,36.07,0,0,0-25.13-10.38c-16,0-27.51,10-27.51,23,0,12,8.51,18.38,16.51,21.75l11.25,4.88c7.38,3.13,12.63,5.25,12.63,12,0,6.38-5,10.51-14.25,10.51-7.51,0-15.38-3.76-21.26-9.26l-8.5,9.88a42.33,42.33,0,0,0,29.51,12Zm76,0c21.39,0,36.14-16.25,36.14-42.76s-14.75-42-36.14-42-36,15.63-36,42,14.75,42.76,36,42.76Zm0-12.62c-12.87,0-21.13-11.76-21.13-30.14s8.26-29.38,21.13-29.38,21.14,11.13,21.14,29.38-8.26,30.14-21.14,30.14Zm97.66-29.64c-8,0-12.63-4.87-12.63-14.25,0-9.63,5.37-15,11.88-15,7.75,0,13.5,6,15,20-4.13,6.5-9.63,9.25-14.25,9.25Zm-3.38,42.26c16.38,0,31.26-12.87,31.26-43.76,0-26.75-13.26-38.76-28.76-38.76-13.63,0-25,10.13-25,26,0,16.63,9.51,24.63,23.14,24.63,5.75,0,12.75-3.5,17.37-9.25-.62,22-8.75,29.38-18.75,29.38a17.42,17.42,0,0,1-12.75-6l-7.76,8.75a28.59,28.59,0,0,0,21.26,9Zm69,0c16.51,0,27-14.75,27-41.63s-10.5-40.89-27-40.89-27,14-27,40.89,10.5,41.63,27,41.63Zm0-11.25c-7.62,0-13.25-7.88-13.25-30.38s5.63-29.63,13.25-29.63,13.26,7.12,13.26,29.63-5.5,30.38-13.26,30.38Zm64.14,11.25c16.51,0,27-14.75,27-41.63s-10.5-40.89-27-40.89-27,14-27,40.89,10.5,41.63,27,41.63Zm0-11.25c-7.62,0-13.25-7.88-13.25-30.38s5.63-29.63,13.25-29.63,13.26,7.12,13.26,29.63-5.5,30.38-13.26,30.38Zm36.39,9.75H8447v-11.75h-15.63V2105.5h-10.76c-5,3-10.5,5-18.38,6.5v9h14.63v52.26h-17.75V2185Z" transform="translate(-5550.95 -1620.73)"></path></svg> 